<?xml version="1.0" ?>
<svg data-name="Layer 1" id="Layer_1" viewBox="0 0 512 512" xmlns="http://www.w3.org/2000/svg">
  <path fill="#009697" d="M497.35,412.43H456.9V293.6l22.61,7a5.06,5.06,0,0,0,1.52.23,5.1,5.1,0,0,0,1.52-10L285.37,229.39V183l32.76,24.63a5,5,0,0,0,3.06,1,5.09,5.09,0,0,0,3.06-9.17L179.14,90.4a5.07,5.07,0,0,0-6.12,0L27.91,199.52A5.09,5.09,0,0,0,34,207.66L66.79,183v229.4H14.65a5.1,5.1,0,0,0,0,10.2h482.7a5.1,5.1,0,1,0,0-10.2Zm-50.65-122v122H285.37V240.08Zm-306.86,122V362.22a35.87,35.87,0,0,1,35.83-35.83h.82a35.87,35.87,0,0,1,35.83,35.83v50.21Zm82.68,0V362.22a46.08,46.08,0,0,0-46-46h-.82a46.08,46.08,0,0,0-46,46v50.21H77V175.36l99.09-74.51,99.09,74.51V412.43Z"/>
  <path fill="#009697" d="M132.28,222a28,28,0,0,0-28,28v30.92a5.1,5.1,0,0,0,5.1,5.1h46.22a5.1,5.1,0,0,0,5.1-5.1V250A28.11,28.11,0,0,0,132.28,222Zm18.24,53.8h-36V250a18,18,0,0,1,36,0Z"/>
  <path fill="#009697" d="M219.42,222a28,28,0,0,0-28,28v30.92a5.1,5.1,0,0,0,5.1,5.1h46.22a5.1,5.1,0,0,0,5.1-5.1V250A28.11,28.11,0,0,0,219.42,222Zm18.24,53.8h-36V250a18,18,0,0,1,36,0Z"/>
  <path fill="#009697" d="M315.56,368h35.51a5.1,5.1,0,0,0,5.1-5.1V339.19a22.86,22.86,0,0,0-45.71,0v23.75A5.1,5.1,0,0,0,315.56,368Zm5.1-28.85a12.66,12.66,0,0,1,25.31,0v18.65H320.66Z"/>
  <path fill="#009697" d="M380.65,368h35.51a5.1,5.1,0,0,0,5.1-5.1V339.19a22.86,22.86,0,0,0-45.71,0v23.75A5.1,5.1,0,0,0,380.65,368Zm5.1-28.85a12.66,12.66,0,0,1,25.31,0v18.65H385.75Z"/>
  </svg>